<svg aria-hidden="true" style="position: absolute; width: 0; height: 0; overflow: hidden;" version="1.1" xmlns="http://www.w3.org/2000/svg" xmlns:xlink="http://www.w3.org/1999/xlink">
<defs>
<symbol id="icon-close" viewBox="0 0 32 32">
<path stroke-linejoin="miter" stroke-linecap="butt" stroke-miterlimit="4" stroke-width="2.1333" d="M8.533 8.533l14.933 14.933M8.533 23.467l14.933-14.933"></path>
</symbol>
<symbol id="icon-logo" viewBox="0 0 32 32">
<path fill="none" stroke-linejoin="round" stroke-linecap="round" stroke-miterlimit="4" stroke-width="2.6667" d="M26.427 2.667h-20.853c-1.605 0-2.907 1.301-2.907 2.907v0 20.853c0 1.605 1.301 2.907 2.907 2.907v0h20.853c1.605 0 2.907-1.301 2.907-2.907v0-20.853c0-1.605-1.301-2.907-2.907-2.907v0zM9.333 2.667v26.667M22.667 2.667v26.667M2.667 16h26.667M2.667 9.333h6.667M2.667 22.667h6.667M22.667 22.667h6.667M22.667 9.333h6.667"></path>
</symbol>
<symbol id="icon-heart" viewBox="0 0 34 32">
<path fill="#ff6b08" style="fill: var(--color2, #ff6b08)" d="M17.231 31.705l-2.412-2.412c-8.96-7.926-14.818-13.268-14.818-19.815 0-5.342 4.135-9.477 9.477-9.477 2.929 0 5.858 1.378 7.754 3.618 1.895-2.24 4.825-3.618 7.754-3.618 5.342 0 9.477 4.135 9.477 9.477 0 6.548-5.858 11.889-14.818 19.815l-2.412 2.412z"></path>
</symbol>
<symbol id="icon-search" viewBox="0 0 32 32">
<path fill="none" stroke-linejoin="round" stroke-linecap="round" stroke-miterlimit="4" stroke-width="2.6667" d="M14.667 25.333c5.891 0 10.667-4.776 10.667-10.667s-4.776-10.667-10.667-10.667v0c-5.891 0-10.667 4.776-10.667 10.667s4.776 10.667 10.667 10.667v0zM28 28l-5.8-5.8"></path>
</symbol>
<symbol id="icon-arrow" viewBox="0 0 32 32">
<path  stroke="#ff6b08"  stroke-linejoin="miter" stroke-linecap="butt" stroke-miterlimit="4" stroke-width="2.8657" d="M30.567 16c0 8.045-6.522 14.567-14.567 14.567s-14.567-6.522-14.567-14.567c0-8.045 6.522-14.567 14.567-14.567s14.567 6.522 14.567 14.567z"></path>
<path    stroke-linejoin="miter" stroke-linecap="round" stroke-miterlimit="2.924" stroke-width="2.8657" d="M15.761 23.403v-13.373"></path>
<path    stroke-linejoin="miter" stroke-linecap="round" stroke-miterlimit="4" stroke-width="2.8657" d="M15.349 10.144l-5.205 5.551M16.173 10.144l5.205 5.551"></path>
</symbol>
<symbol id="moon" viewBox="0 0 32 32"><path fill="currentColor" d="M17.701 32a15.97 15.97 0 0012.429-5.925c.442-.544-.04-1.339-.723-1.209-7.763 1.478-14.891-4.474-14.891-12.31 0-4.514 2.416-8.665 6.344-10.9.605-.345.453-1.262-.235-1.389-.879-.17-1.89-.267-2.923-.268-8.832 0-16 7.157-16 16 0 8.832 7.157 16 16 16z"/></symbol><symbol id="sun" viewBox="0 0 32 32"><path fill="currentColor" d="M16 10c-3.306 0-6 2.694-6 6s2.694 6 6 6 6-2.694 6-6-2.694-6-6-6zm15.4 5.031l-5.919-2.956L27.575 5.8c.281-.85-.525-1.656-1.369-1.369l-6.275 2.094L16.969.6c-.4-.8-1.537-.8-1.938 0l-2.956 5.919-6.281-2.094c-.85-.281-1.656.525-1.369 1.369l2.094 6.275L.6 15.032c-.8.4-.8 1.538 0 1.938l5.919 2.956-2.094 6.281c-.281.85.525 1.656 1.369 1.369l6.275-2.094 2.956 5.919c.4.8 1.538.8 1.938 0l2.956-5.919 6.275 2.094c.85.281 1.656-.525 1.369-1.369l-2.094-6.275 5.919-2.956c.813-.406.813-1.544.012-1.944zm-9.744 6.625c-3.119 3.119-8.194 3.119-11.313 0s-3.119-8.194 0-11.313c3.119-3.119 8.194-3.119 11.313 0s3.119 8.194 0 11.313z"/></symbol>
<symbol id="night-theme" viewBox="0 0 32 32">
<path d="M16.5 10.707c0.063-0.010 0.126-0.021 0.19-0.035 3.203-0.802 7.718-0.765 10.041-0.409 0.28 0.043 0.325 1.215 0.075 1.256-0.459 0.169-0.655 0.59-0.655 0.59s-0.137 0.374-0.535 1.894c-0.398 1.52-1.347 1.702-1.347 1.702s-1.162 0.261-2.502 0.261c-1.34 0-2.142-0.055-3-0.446s-1.233-1.477-1.233-1.477c0 0-0.432-0.937-0.73-1.82-0.045-0.134-0.163-0.225-0.304-0.284-0.14 0.058-0.259 0.15-0.304 0.284-0.298 0.884-0.73 1.82-0.73 1.82s-0.375 1.087-1.233 1.477c-0.858 0.39-1.66 0.446-3 0.446s-2.502-0.261-2.502-0.261c0 0-0.949-0.182-1.347-1.702s-0.535-1.894-0.535-1.894c0 0-0.196-0.421-0.655-0.59-0.249-0.041-0.205-1.213 0.075-1.256 2.323-0.356 6.839-0.393 10.041 0.409 0.064 0.013 0.127 0.025 0.19 0.035zM16.5 29c6.904 0 12.5-5.596 12.5-12.5s-5.596-12.5-12.5-12.5c-6.904 0-12.5 5.596-12.5 12.5s5.596 12.5 12.5 12.5zM16.481 22c3.481 0 5.519-2 5.519-2v1c0 0-2.037 2-5.519 2s-5.481-2-5.481-2v-1c0 0 2 2 5.481 2z"></path>
</symbol>
<symbol id="day-theme" viewBox="0 0 32 32">
<path d="M26.11 10.181v0c-2.442-0.275-6.483-0.245-9.42 0.491-0.064 0.013-0.127 0.025-0.19 0.035-0.063-0.010-0.126-0.021-0.19-0.035-2.937-0.736-6.978-0.765-9.42-0.491v0c2.056-3.121 5.593-5.181 9.61-5.181s7.554 2.060 9.61 5.181zM26.856 11.494c0.733 1.513 1.144 3.212 1.144 5.006 0 6.351-5.149 11.5-11.5 11.5s-11.5-5.149-11.5-11.5c0-1.794 0.411-3.493 1.144-5.006 0.015 0.014 0.031 0.023 0.049 0.026 0.459 0.169 0.655 0.59 0.655 0.59s0.137 0.374 0.535 1.894c0.398 1.52 1.347 1.702 1.347 1.702s1.162 0.261 2.502 0.261c1.34 0 2.142-0.055 3-0.446s1.233-1.477 1.233-1.477c0 0 0.432-0.937 0.73-1.82 0.045-0.134 0.163-0.225 0.304-0.284 0.14 0.058 0.259 0.15 0.304 0.284 0.298 0.884 0.73 1.82 0.73 1.82s0.375 1.087 1.233 1.477c0.858 0.39 1.66 0.446 3 0.446s2.502-0.261 2.502-0.261c0 0 0.949-0.182 1.347-1.702s0.535-1.894 0.535-1.894c0 0 0.196-0.421 0.655-0.59 0.018-0.003 0.034-0.012 0.049-0.026v0zM16.5 29c6.904 0 12.5-5.596 12.5-12.5s-5.596-12.5-12.5-12.5c-6.904 0-12.5 5.596-12.5 12.5s5.596 12.5 12.5 12.5v0zM16.481 22c-3.481 0-5.481-2-5.481-2v1c0 0 2 2 5.481 2s5.519-2 5.519-2v-1c0 0-2.037 2-5.519 2v0z"></path>
</symbol>

<symbol id="email" viewBox="0 0 43 32">
<path d="M38.667 0h-34.667c-2.206 0-4 1.794-4 4v24c0 2.206 1.794 4 4 4h34.667c2.206 0 4-1.794 4-4v-24c0-2.206-1.794-4-4-4zM38.667 2.667c0.181 0 0.353 0.038 0.511 0.103l-17.844 15.466-17.844-15.466c0.158-0.066 0.33-0.103 0.511-0.103h34.667zM38.667 29.333h-34.667c-0.736 0-1.333-0.598-1.333-1.333v-22.413l17.793 15.421c0.251 0.217 0.563 0.326 0.874 0.326s0.622-0.108 0.874-0.326l17.793-15.421v22.413c0 0.736-0.598 1.333-1.333 1.333z"></path>
</symbol>

<symbol id="github" viewBox="0 0 32 32">
<path d="M16 0c-8.788 0-16 7.212-16 16 0 7.499 5.262 14.312 12.25 16v-5.293c-0.692 0.152-1.33 0.156-2.034-0.052-0.946-0.279-1.714-0.909-2.284-1.869-0.364-0.613-1.008-1.278-1.68-1.23l-0.165-1.868c1.453-0.124 2.711 0.886 3.457 2.14 0.332 0.558 0.713 0.884 1.203 1.029 0.473 0.14 0.982 0.072 1.574-0.137 0.149-1.186 0.692-1.63 1.102-2.255v-0.001c-4.167-0.622-5.828-2.832-6.488-4.578-0.874-2.317-0.405-5.212 1.14-7.041 0.030-0.036 0.084-0.129 0.063-0.194-0.708-2.139 0.155-3.909 0.187-4.097 0.817 0.242 0.95-0.243 3.551 1.337l0.449 0.27c0.188 0.112 0.129 0.048 0.317 0.034 1.086-0.295 2.23-0.458 3.358-0.472 1.136 0.015 2.273 0.178 3.404 0.484l0.145 0.015c-0.013-0.002 0.040-0.009 0.127-0.062 3.248-1.968 3.132-1.324 4.003-1.608 0.032 0.188 0.883 1.987 0.182 4.099-0.095 0.291 2.816 2.956 1.203 7.235-0.659 1.746-2.32 3.957-6.487 4.578v0.001c0.534 0.814 1.176 1.247 1.173 2.927v6.608c6.988-1.688 12.25-8.501 12.25-16 0-8.788-7.212-16-16-16v0z"></path>
</symbol>

<symbol id="close" viewBox="0 0 32 32">
<path fill="#fff" style="fill: var(--color1, #fff)" d="M32 16c0 8.837-7.163 16-16 16s-16-7.163-16-16c0-8.837 7.163-16 16-16s16 7.163 16 16z"></path>
<path fill="none" stroke-linejoin="miter" stroke-linecap="butt" stroke-miterlimit="4" stroke-width="1.0667" d="M31.467 16c0 8.542-6.925 15.467-15.467 15.467s-15.467-6.925-15.467-15.467c0-8.542 6.925-15.467 15.467-15.467s15.467 6.925 15.467 15.467z"></path>
<path d="M22.4 10.782l-1.182-1.182-4.685 4.685-4.685-4.685-1.182 1.182 4.685 4.685-4.685 4.685 1.182 1.182 4.685-4.685 4.685 4.685 1.182-1.182-4.685-4.685 4.685-4.685z"></path>
</symbol>

</defs>
</svg>
